<svg width="22" height="22" viewBox="0 0 22 22" fill="none" xmlns="http://www.w3.org/2000/svg">
<path d="M5.99989 3.5C5.46789 3.49985 4.94541 3.64117 4.48602 3.90948C4.02664 4.17778 3.64686 4.56343 3.38562 5.02687C3.12439 5.49032 2.99109 6.0149 2.9994 6.54684C3.0077 7.07877 3.15731 7.59894 3.43289 8.054C2.74843 8.18625 2.13136 8.55267 1.68764 9.09034C1.24392 9.62801 1.00122 10.3034 1.00122 11.0005C1.00122 11.6976 1.24392 12.373 1.68764 12.9107C2.13136 13.4483 2.74843 13.8147 3.43289 13.947M5.99989 3.5C5.99989 2.83696 6.26328 2.20107 6.73212 1.73223C7.20096 1.26339 7.83685 1 8.49989 1C9.16293 1 9.79882 1.26339 10.2677 1.73223C10.7365 2.20107 10.9999 2.83696 10.9999 3.5M5.99989 3.5C5.99989 4.318 6.39289 5.044 6.99989 5.5M3.43289 13.947C3.15757 14.402 3.00817 14.9221 2.99999 15.4539C2.99182 15.9857 3.12516 16.5101 3.38637 16.9734C3.64757 17.4367 4.02725 17.8222 4.48649 18.0904C4.94573 18.3587 5.46804 18.5 5.99989 18.5C5.99989 19.163 6.26328 19.7989 6.73212 20.2678C7.20096 20.7366 7.83685 21 8.49989 21C9.16293 21 9.79882 20.7366 10.2677 20.2678C10.7365 19.7989 10.9999 19.163 10.9999 18.5M3.43289 13.947C3.79177 13.3529 4.34556 12.9016 4.99989 12.67M10.9999 3.5V18.5M10.9999 3.5C10.9999 2.83696 11.2633 2.20107 11.7321 1.73223C12.201 1.26339 12.8368 1 13.4999 1C14.1629 1 14.7988 1.26339 15.2677 1.73223C15.7365 2.20107 15.9999 2.83696 15.9999 3.5C16.5319 3.49985 17.0544 3.64117 17.5138 3.90948C17.9731 4.17778 18.3529 4.56343 18.6142 5.02687C18.8754 5.49032 19.0087 6.0149 19.0004 6.54684C18.9921 7.07877 18.8425 7.59894 18.5669 8.054M10.9999 18.5C10.9999 19.163 11.2633 19.7989 11.7321 20.2678C12.201 20.7366 12.8368 21 13.4999 21C14.1629 21 14.7988 20.7366 15.2677 20.2678C15.7365 19.7989 15.9999 19.163 15.9999 18.5M15.9999 18.5C16.5317 18.5 17.054 18.3587 17.5133 18.0904C17.9725 17.8222 18.3522 17.4367 18.6134 16.9734C18.8746 16.5101 19.008 15.9857 18.9998 15.4539C18.9916 14.9221 18.8422 14.402 18.5669 13.947C19.2513 13.8147 19.8684 13.4483 20.3121 12.9107C20.7559 12.373 20.9986 11.6976 20.9986 11.0005C20.9986 10.3034 20.7559 9.62801 20.3121 9.09034C19.8684 8.55267 19.2513 8.18625 18.5669 8.054M15.9999 18.5C15.9999 17.682 15.6069 16.956 14.9999 16.5M18.5669 8.054C18.2077 8.64738 17.6539 9.09794 16.9999 9.329" stroke="black" stroke-width="1.5" stroke-linecap="round" stroke-linejoin="round"/>
</svg>
