<svg width="22" height="24" viewBox="0 0 22 24" fill="none" xmlns="http://www.w3.org/2000/svg">
<path d="M2 21.5775H7.538V13.962C7.538 13.619 7.6545 13.3315 7.8875 13.0995C8.1195 12.8665 8.407 12.75 8.75 12.75H13.25C13.593 12.75 13.881 12.8665 14.114 13.0995C14.346 13.3315 14.462 13.619 14.462 13.962V21.5775H20V8.5395C20 8.3855 19.9665 8.2455 19.8995 8.1195C19.8325 7.9935 19.741 7.8835 19.625 7.7895L11.549 1.7025C11.395 1.5685 11.212 1.5015 11 1.5015C10.788 1.5015 10.6055 1.5685 10.4525 1.7025L2.375 7.7895C2.26 7.8855 2.1685 7.9955 2.1005 8.1195C2.0325 8.2435 1.999 8.3835 2 8.5395V21.5775ZM0.5 21.5775V8.5395C0.5 8.1555 0.586 7.792 0.758 7.449C0.93 7.106 1.167 6.8235 1.469 6.6015L9.5465 0.484501C9.9695 0.161501 10.4525 0 10.9955 0C11.5385 0 12.0245 0.161501 12.4535 0.484501L20.531 6.6C20.834 6.822 21.071 7.105 21.242 7.449C21.414 7.792 21.5 8.1555 21.5 8.5395V21.5775C21.5 21.9795 21.3505 22.33 21.0515 22.629C20.7525 22.928 20.402 23.0775 20 23.0775H14.174C13.83 23.0775 13.542 22.9615 13.31 22.7295C13.078 22.4965 12.962 22.2085 12.962 21.8655V14.2515H9.038V21.8655C9.038 22.2095 8.922 22.4975 8.69 22.7295C8.458 22.9615 8.1705 23.0775 7.8275 23.0775H2C1.598 23.0775 1.2475 22.928 0.9485 22.629C0.6495 22.33 0.5 21.9795 0.5 21.5775Z" fill="#FF4F12"/>
</svg>
