<svg width="20" height="25" viewBox="0 0 20 25" fill="none" xmlns="http://www.w3.org/2000/svg">
<path d="M17.1898 14.9947C17.9354 14.9954 18.6502 15.292 19.1771 15.8194C19.704 16.3468 20 17.0618 20 17.8074V18.5262C20 19.6438 19.6 20.7251 18.875 21.5739C16.9123 23.8653 13.9284 24.9966 9.99564 24.9966C6.06289 24.9966 3.0802 23.8653 1.12257 21.5714C0.398285 20.723 0.000259078 19.6442 0 18.5287V17.8061C0.000331276 17.0606 0.296641 16.3457 0.823814 15.8185C1.35099 15.2913 2.06589 14.995 2.81143 14.9947H17.1898ZM17.1898 16.8698H2.81018C2.56152 16.8698 2.32305 16.9686 2.14722 17.1444C1.9714 17.3203 1.87262 17.5587 1.87262 17.8074V18.5287C1.87262 19.1975 2.11263 19.845 2.54766 20.3538C4.11401 22.1902 6.57292 23.1215 9.99438 23.1215C13.4184 23.1215 15.8773 22.1902 17.4486 20.355C17.8844 19.8454 18.1239 19.1968 18.1237 18.5262V17.8061C18.1233 17.5581 18.0247 17.3204 17.8495 17.1449C17.6742 16.9694 17.4378 16.8705 17.1898 16.8698ZM9.99564 0C10.8164 -1.22311e-08 11.6292 0.161671 12.3876 0.475783C13.1459 0.789895 13.8349 1.2503 14.4153 1.8307C14.9957 2.4111 15.4561 3.10014 15.7703 3.85847C16.0844 4.61681 16.246 5.42958 16.246 6.2504C16.246 7.07121 16.0844 7.88399 15.7703 8.64232C15.4561 9.40065 14.9957 10.0897 14.4153 10.6701C13.8349 11.2505 13.1459 11.7109 12.3876 12.025C11.6292 12.3391 10.8164 12.5008 9.99564 12.5008C8.33793 12.5008 6.74811 11.8423 5.57594 10.6701C4.40376 9.49792 3.74524 7.90811 3.74524 6.2504C3.74524 4.59269 4.40376 3.00288 5.57594 1.8307C6.74811 0.658522 8.33793 0 9.99564 0ZM9.99564 1.87512C9.42107 1.87512 8.85212 1.98829 8.32129 2.20817C7.79046 2.42805 7.30813 2.75033 6.90185 3.15661C6.49556 3.56289 6.17328 4.04522 5.95341 4.57605C5.73353 5.10688 5.62036 5.67583 5.62036 6.2504C5.62036 6.82497 5.73353 7.39391 5.95341 7.92474C6.17328 8.45558 6.49556 8.9379 6.90185 9.34419C7.30813 9.75047 7.79046 10.0727 8.32129 10.2926C8.85212 10.5125 9.42107 10.6257 9.99564 10.6257C11.156 10.6257 12.2689 10.1647 13.0894 9.34419C13.9099 8.52366 14.3709 7.41079 14.3709 6.2504C14.3709 5.09 13.9099 3.97713 13.0894 3.15661C12.2689 2.33608 11.156 1.87512 9.99564 1.87512Z" fill="black"/>
</svg>
